<?xml version="1.0" standalone="no"?>
<!DOCTYPE svg PUBLIC "-//W3C//DTD SVG 20010904//EN"
 "http://www.w3.org/TR/2001/REC-SVG-20010904/DTD/svg10.dtd">
<svg version="1.0" xmlns="http://www.w3.org/2000/svg"
 width="70.000000pt" height="70.000000pt" viewBox="0 0 70.000000 70.000000"
 preserveAspectRatio="xMidYMid meet">
<metadata>
Created by potrace 1.11, written by Peter Selinger 2001-2013
</metadata>
<g transform="translate(0.000000,70.000000) scale(0.100000,-0.100000)"
fill="#000000" stroke="none">
<path d="M0 350 l0 -350 350 0 350 0 0 350 0 350 -350 0 -350 0 0 -350z m381
233 c1 -10 2 -25 3 -33 1 -21 56 -27 56 -6 0 17 38 32 51 19 5 -5 3 -20 -5
-35 -13 -24 -12 -28 9 -48 13 -12 24 -17 26 -12 2 6 15 12 29 14 44 6 30 -39
-18 -58 -1 -1 2 -13 8 -28 5 -15 14 -24 20 -21 14 9 50 -13 50 -30 0 -15 -17
-20 -52 -17 -10 1 -18 -5 -18 -12 0 -8 -3 -21 -6 -30 -4 -10 -1 -16 10 -16 17
0 40 -35 32 -49 -6 -9 -37 -8 -54 3 -18 11 -56 -24 -42 -38 12 -12 13 -56 1
-56 -21 0 -41 13 -41 27 0 10 -9 13 -27 11 -21 -2 -29 -10 -35 -35 -5 -18 -15
-33 -23 -33 -15 0 -30 34 -21 49 3 5 -6 13 -22 19 -23 8 -30 6 -46 -15 -10
-13 -23 -22 -29 -20 -14 4 -16 37 -3 55 6 8 3 19 -8 31 -15 17 -20 18 -44 5
-34 -17 -57 -2 -39 27 6 10 17 19 24 19 15 0 17 28 5 48 -5 7 -15 10 -23 7 -8
-3 -23 1 -34 10 -20 15 -20 15 0 30 11 9 26 13 34 10 8 -3 18 0 23 7 12 20 10
48 -5 48 -16 0 -37 34 -28 48 7 11 23 11 54 -3 23 -10 53 17 41 37 -5 7 -10
23 -12 36 -4 28 21 29 49 1 15 -15 28 -19 45 -15 14 4 22 11 19 16 -4 6 -3 19
0 30 8 25 45 27 46 3z"/>
<path d="M345 509 c-9 -13 5 -73 15 -62 16 18 20 61 5 67 -8 3 -17 1 -20 -5z"/>
<path d="M273 493 c-17 -6 -16 -23 1 -23 8 0 16 7 20 15 6 15 1 17 -21 8z"/>
<path d="M420 486 c0 -9 7 -16 16 -16 17 0 14 22 -4 28 -7 2 -12 -3 -12 -12z"/>
<path d="M305 470 c-3 -5 2 -21 11 -35 9 -14 14 -28 11 -32 -4 -3 -12 6 -18
21 -7 16 -20 26 -33 26 -18 0 -16 -4 13 -34 42 -44 63 -33 47 26 -10 38 -20
47 -31 28z"/>
<path d="M380 446 c-17 -51 -8 -63 14 -21 14 25 16 39 9 46 -8 8 -14 0 -23
-25z"/>
<path d="M220 435 c-16 -20 -5 -30 40 -39 l34 -6 -29 30 c-34 35 -29 34 -45
15z"/>
<path d="M405 419 c-23 -43 -14 -45 25 -4 31 32 32 35 12 35 -14 0 -27 -11
-37 -31z"/>
<path d="M449 413 c-19 -21 -20 -25 -6 -20 10 4 27 7 38 7 12 0 19 7 19 20 0
28 -22 25 -51 -7z"/>
<path d="M226 375 c4 -10 19 -15 48 -14 43 0 34 8 -26 23 -22 5 -26 3 -22 -9z"/>
<path d="M445 375 l-40 -13 43 -1 c31 -1 42 3 42 14 0 8 -1 15 -2 14 -2 0 -21
-6 -43 -14z"/>
<path d="M190 350 c0 -13 5 -20 13 -17 6 2 12 10 12 17 0 7 -6 15 -12 18 -8 2
-13 -5 -13 -18z"/>
<path d="M504 359 c-3 -6 -1 -16 5 -22 8 -8 11 -5 11 11 0 24 -5 28 -16 11z"/>
<path d="M225 329 c-12 -18 0 -19 46 -5 l44 14 -42 1 c-23 1 -45 -4 -48 -10z"/>
<path d="M440 325 c46 -18 50 -18 50 0 0 11 -11 15 -42 14 l-43 -1 35 -13z"/>
<path d="M290 285 c-30 -30 -31 -35 -14 -35 13 0 26 12 37 35 9 19 15 35 14
35 -2 0 -18 -16 -37 -35z"/>
<path d="M241 301 c-29 -8 -37 -24 -18 -39 11 -9 20 -5 42 18 29 30 24 35 -24
21z"/>
<path d="M370 300 c0 -8 5 -33 11 -54 9 -33 13 -37 20 -23 7 12 4 28 -10 54
-11 21 -20 31 -21 23z"/>
<path d="M406 276 c12 -25 21 -32 36 -28 18 4 17 7 -8 33 -37 38 -47 37 -28
-5z"/>
<path d="M454 281 c29 -30 46 -32 46 -6 0 16 -5 20 -45 29 l-30 8 29 -31z"/>
<path d="M317 270 c-17 -28 -16 -50 2 -50 5 0 13 18 19 40 12 47 3 52 -21 10z"/>
<path d="M346 236 c-8 -42 -2 -58 19 -50 10 4 13 14 9 33 -12 50 -21 55 -28
17z"/>
<path d="M262 218 c3 -7 12 -14 21 -16 12 -2 15 1 11 12 -7 19 -38 22 -32 4z"/>
<path d="M420 214 c0 -9 5 -14 12 -12 18 6 21 28 4 28 -9 0 -16 -7 -16 -16z"/>
</g>
</svg>
